HIERARCHY
ROOT hip
{
  OFFSET -0.187293 96.2814 0.227346
  CHANNELS 6 Xposition Yposition Zposition Zrotation Xrotation Yrotation
  JOINT abdomen
  {
    OFFSET 0 7.2397 0
    CHANNELS 6 Xposition Yposition Zposition Zrotation Xrotation Yrotation
    JOINT chest
    {
      OFFSET 0 16.546 0
      CHANNELS 6 Xposition Yposition Zposition Zrotation Xrotation Yrotation
      JOINT neck
      {
        OFFSET 0 34.2149 0
        CHANNELS 6 Xposition Yposition Zposition Zrotation Xrotation Yrotation
        JOINT head
        {
          OFFSET 0 6.2923 0
          CHANNELS 6 Xposition Yposition Zposition Zrotation Xrotation Yrotation
          End Site
          {
            OFFSET 0 21.2161 0
          }
        }
      }
      JOINT lCollar
      {
        OFFSET 4.0639 26.6115 -1.1234
        CHANNELS 6 Xposition Yposition Zposition Zrotation Xrotation Yrotation
        JOINT lShldr
        {
          OFFSET 14.1772 0 0
          CHANNELS 6 Xposition Yposition Zposition Zrotation Xrotation Yrotation
          JOINT lForeArm
          {
            OFFSET 26.1234 0 0
            CHANNELS 6 Xposition Yposition Zposition Zrotation Xrotation Yrotation
            JOINT lHand
            {
              OFFSET 27.7188 0 0
              CHANNELS 6 Xposition Yposition Zposition Zrotation Xrotation Yrotation
              JOINT lThumb1
              {
                OFFSET 2.2979 -0.4685 1.8313
                CHANNELS 6 Xposition Yposition Zposition Zrotation Xrotation Yrotation
                JOINT lThumb2
                {
                  OFFSET 5.2953 0 0
                  CHANNELS 6 Xposition Yposition Zposition Zrotation Xrotation Yrotation
                  JOINT lThumb3
                  {
                    OFFSET 3.0181 0 0
                    CHANNELS 6 Xposition Yposition Zposition Zrotation Xrotation Yrotation
                    End Site
                    {
                      OFFSET 2.6294 0 0
                    }
                  }
                }
              }
              JOINT lIndex1
              {
                OFFSET 9.3793 0.2991 2.5924
                CHANNELS 6 Xposition Yposition Zposition Zrotation Xrotation Yrotation
                JOINT lIndex2
                {
                  OFFSET 4.3461 0 0
                  CHANNELS 6 Xposition Yposition Zposition Zrotation Xrotation Yrotation
                  JOINT lIndex3
                  {
                    OFFSET 2.1666 0 0
                    CHANNELS 6 Xposition Yposition Zposition Zrotation Xrotation Yrotation
                    End Site
                    {
                      OFFSET 2.2048 0 0
                    }
                  }
                }
              }
              JOINT lMid1
              {
                OFFSET 9.4769 0.8376 0.2947
                CHANNELS 6 Xposition Yposition Zposition Zrotation Xrotation Yrotation
                JOINT lMid2
                {
                  OFFSET 4.772 0 0
                  CHANNELS 6 Xposition Yposition Zposition Zrotation Xrotation Yrotation
                  JOINT lMid3
                  {
                    OFFSET 2.8722 0 0
                    CHANNELS 6 Xposition Yposition Zposition Zrotation Xrotation Yrotation
                    End Site
                    {
                      OFFSET 2.0959 0 0
                    }
                  }
                }
              }
              JOINT lRing1
              {
                OFFSET 8.6586 1.0176 -1.7016
                CHANNELS 6 Xposition Yposition Zposition Zrotation Xrotation Yrotation
                JOINT lRing2
                {
                  OFFSET 4.5461 0 0
                  CHANNELS 6 Xposition Yposition Zposition Zrotation Xrotation Yrotation
                  JOINT lRing3
                  {
                    OFFSET 2.506 0 0
                    CHANNELS 6 Xposition Yposition Zposition Zrotation Xrotation Yrotation
                    End Site
                    {
                      OFFSET 2.2023 0 0
                    }
                  }
                }
              }
              JOINT lPinky1
              {
                OFFSET 7.6901 0.6618 -3.9096
                CHANNELS 6 Xposition Yposition Zposition Zrotation Xrotation Yrotation
                JOINT lPinky2
                {
                  OFFSET 3.2119 0 0
                  CHANNELS 6 Xposition Yposition Zposition Zrotation Xrotation Yrotation
                  JOINT lPinky3
                  {
                    OFFSET 1.924 0 0
                    CHANNELS 6 Xposition Yposition Zposition Zrotation Xrotation Yrotation
                    End Site
                    {
                      OFFSET 1.7829 0 0
                    }
                  }
                }
              }
            }
          }
        }
      }
      JOINT rCollar
      {
        OFFSET -4.0677 26.6109 -1.1234
        CHANNELS 6 Xposition Yposition Zposition Zrotation Xrotation Yrotation
        JOINT rShldr
        {
          OFFSET -14.1772 0 0
          CHANNELS 6 Xposition Yposition Zposition Zrotation Xrotation Yrotation
          JOINT rForeArm
          {
            OFFSET -26.1234 0 0
            CHANNELS 6 Xposition Yposition Zposition Zrotation Xrotation Yrotation
            JOINT rHand
            {
              OFFSET -27.7188 0 0
              CHANNELS 6 Xposition Yposition Zposition Zrotation Xrotation Yrotation
              JOINT rThumb1
              {
                OFFSET -2.2979 -0.4684 1.8313
                CHANNELS 6 Xposition Yposition Zposition Zrotation Xrotation Yrotation
                JOINT rThumb2
                {
                  OFFSET -5.2953 0 0
                  CHANNELS 6 Xposition Yposition Zposition Zrotation Xrotation Yrotation
                  JOINT rThumb3
                  {
                    OFFSET -3.0181 0 0
                    CHANNELS 6 Xposition Yposition Zposition Zrotation Xrotation Yrotation
                    End Site
                    {
                      OFFSET -2.6294 0 0
                    }
                  }
                }
              }
              JOINT rIndex1
              {
                OFFSET -9.3793 0.2991 2.5924
                CHANNELS 6 Xposition Yposition Zposition Zrotation Xrotation Yrotation
                JOINT rIndex2
                {
                  OFFSET -4.3461 0 0
                  CHANNELS 6 Xposition Yposition Zposition Zrotation Xrotation Yrotation
                  JOINT rIndex3
                  {
                    OFFSET -2.1666 0 0
                    CHANNELS 6 Xposition Yposition Zposition Zrotation Xrotation Yrotation
                    End Site
                    {
                      OFFSET -2.2048 0 0
                    }
                  }
                }
              }
              JOINT rMid1
              {
                OFFSET -9.4769 0.8376 0.2947
                CHANNELS 6 Xposition Yposition Zposition Zrotation Xrotation Yrotation
                JOINT rMid2
                {
                  OFFSET -4.772 0 0
                  CHANNELS 6 Xposition Yposition Zposition Zrotation Xrotation Yrotation
                  JOINT rMid3
                  {
                    OFFSET -2.8722 0 0
                    CHANNELS 6 Xposition Yposition Zposition Zrotation Xrotation Yrotation
                    End Site
                    {
                      OFFSET -2.0959 0 0
                    }
                  }
                }
              }
              JOINT rRing1
              {
                OFFSET -8.6586 1.0176 -1.7016
                CHANNELS 6 Xposition Yposition Zposition Zrotation Xrotation Yrotation
                JOINT rRing2
                {
                  OFFSET -4.5461 0 0
                  CHANNELS 6 Xposition Yposition Zposition Zrotation Xrotation Yrotation
                  JOINT rRing3
                  {
                    OFFSET -2.506 0 0
                    CHANNELS 6 Xposition Yposition Zposition Zrotation Xrotation Yrotation
                    End Site
                    {
                      OFFSET -2.2023 0 0
                    }
                  }
                }
              }
              JOINT rPinky1
              {
                OFFSET -7.6901 0.6618 -3.9096
                CHANNELS 6 Xposition Yposition Zposition Zrotation Xrotation Yrotation
                JOINT rPinky2
                {
                  OFFSET -3.2119 0 0
                  CHANNELS 6 Xposition Yposition Zposition Zrotation Xrotation Yrotation
                  JOINT rPinky3
                  {
                    OFFSET -1.924 0 0
                    CHANNELS 6 Xposition Yposition Zposition Zrotation Xrotation Yrotation
                    End Site
                    {
                      OFFSET -1.7829 0 0
                    }
                  }
                }
              }
            }
          }
        }
      }
    }
  }
  JOINT lThigh
  {
    OFFSET 8.7379 -0.0029 0.0005
    CHANNELS 6 Xposition Yposition Zposition Zrotation Xrotation Yrotation
    JOINT lShin
    {
      OFFSET 0 -46.6676 0
      CHANNELS 6 Xposition Yposition Zposition Zrotation Xrotation Yrotation
      JOINT lFoot
      {
        OFFSET 0 -40.1476 0
        CHANNELS 6 Xposition Yposition Zposition Zrotation Xrotation Yrotation
        JOINT lToes
        {
          OFFSET 0 -8.8846 14.2294
          CHANNELS 6 Xposition Yposition Zposition Zrotation Xrotation Yrotation
          End Site
          {
            OFFSET 0 0 6.296
          }
        }
      }
    }
  }
  JOINT rThigh
  {
    OFFSET -8.7379 0.0029 -0.0005
    CHANNELS 6 Xposition Yposition Zposition Zrotation Xrotation Yrotation
    JOINT rShin
    {
      OFFSET 0 -46.6676 0
      CHANNELS 6 Xposition Yposition Zposition Zrotation Xrotation Yrotation
      JOINT rFoot
      {
        OFFSET 0 -40.1476 0
        CHANNELS 6 Xposition Yposition Zposition Zrotation Xrotation Yrotation
        JOINT rToes
        {
          OFFSET 0 -8.8846 14.2294
          CHANNELS 6 Xposition Yposition Zposition Zrotation Xrotation Yrotation
          End Site
          {
            OFFSET 0 0 6.296
          }
        }
      }
    }
  }
}
MOTION
Frames:	4
Frame Time:	0.0333333
-0.0775135 96.2558 0.238467 -3.74433 -3.51698 -5.66434 0 7.2397 -8.88178e-16 2.3303 -1.8768 0.748893 -2.22045e-16 16.546 -1.77636e-15 3.9764 -1.87328 1.33425 8.88178e-16 34.2149 0 0.581909 38.0887 -0.348545 -1.77636e-15 6.2923 1.42109e-14 -0.392804 -26.9446 0.985468 4.0639 26.6115 -1.1234 -2.65561 -2.49182 -12.25 14.1772 2.84217e-14 0 -83.0411 25.6671 6.56812 26.1234 7.10543e-15 0 -0.00142165 0.446191 -0.182675 27.7188 -7.10543e-15 -3.55271e-15 -13.6736 -36.2677 -4.48373 2.2979 -0.4685 1.8313 58.3139 65.0614 -81.2203 5.2953 0 -7.10543e-15 -31.4655 7.72096 23.7935 3.0181 -8.88178e-16 3.55271e-15 12.8704 -4.1249 15.9788 9.3793 0.2991 2.5924 -6.59178 -1.22902 -1.41178 4.3461 3.55271e-15 0 -21.0436 -0.518977 4.28119 2.1666 3.55271e-15 -8.88178e-16 -14.0325 -0.339084 2.38204 9.4769 0.8376 0.2947 -14.1431 -4.9297 2.73943 4.772 0 8.88178e-16 -20.8116 -0.881912 5.28979 2.8722 0 0 -17.8554 -0.606218 5.95226 8.6586 1.0176 -1.7016 -19.8355 1.33915 4.06119 4.5461 4.44089e-16 -4.44089e-16 -24.7957 -0.728742 3.31379 2.506 0 8.88178e-16 -15.0177 -0.214864 2.97596 7.6901 0.6618 -3.9096 -24.3749 -10.4989 6.56116 3.2119 5.32907e-15 1.77636e-15 -20.2806 -1.23943 6.92174 1.924 0 0 -15.0489 -0.62529 6.70999 -4.0677 26.6109 -1.1234 4.80744 -1.80135 9.91884 -14.1772 2.84217e-14 3.55271e-15 75.9706 37.22 -9.5438 -26.1234 0 3.55271e-15 0.184801 -0.545779 10.1318 -27.7188 0 -1.77636e-15 12.2164 -24.1494 -1.84122 -2.2979 -0.4684 1.8313 -58.2888 62.9234 82.0554 -5.2953 -7.10543e-15 1.77636e-15 35.5254 5.66544 -24.1739 -3.0181 3.55271e-15 3.55271e-15 -13.434 -3.58898 -20.1829 -9.3793 0.2991 2.5924 5.8709 -1.1756 1.84412 -4.3461 0 0 21.1319 -0.442026 -3.85089 -2.1666 -1.77636e-15 8.88178e-16 14.081 -0.305099 -2.13697 -9.4769 0.8376 0.2947 13.5476 -4.80945 -2.15279 -4.772 6.21725e-15 8.88178e-16 20.9235 -0.808186 -4.86289 -2.8722 -1.06581e-14 0 17.9695 -0.556409 -5.50149 -8.6586 1.0176 -1.7016 19.1999 1.52056 -3.37954 -4.5461 -1.77636e-15 1.77636e-15 24.8654 -0.620073 -2.81162 -2.506 1.42109e-14 0 15.0756 -0.183598 -2.52537 -7.6901 0.6618 -3.9096 23.949 -10.2631 -5.76207 -3.2119 0 0 20.4289 -1.17306 -6.50339 -1.924 0 -3.55271e-15 15.1873 -0.595189 -6.30524 8.7379 -0.0029 0.0005 11.3935 -8.29377 24.4749 1.77636e-15 -46.6676 -3.55271e-15 4.88702 18.4808 1.32825 3.55271e-15 -40.1476 1.77636e-15 -6.40549 -3.67212 8.00284 1.77636e-15 -8.8846 14.2294 0.0001 9.93923e-17 9.54166e-15 -8.7379 0.0029 -0.0005 2.39691 0.0177769 -18.3087 -8.88178e-16 -46.6676 0 -2.67562 12.9673 -9.49718 0 -40.1476 -2.22045e-16 3.20189 -8.35415 -8.94384 1.77636e-15 -8.8846 14.2294 9.93923e-17 -4.96962e-17 6.36111e-15 
-0.0932705 96.2509 0.235502 -3.72445 -3.53259 -5.61092 0 7.2397 -8.88178e-16 2.3317 -1.86788 0.762351 0 16.546 -1.77636e-15 3.98974 -1.85493 1.3598 0 34.2149 0 0.556713 38.095 -0.342171 -8.88178e-16 6.2923 1.42109e-14 -0.383653 -26.9458 0.986126 4.0639 26.6115 -1.1234 -2.70187 -2.48976 -12.2892 14.1772 0 0 -83.0039 25.6809 6.48116 26.1234 -7.10543e-15 0 -0.000334459 0.464461 -0.0287299 27.7188 0 0 -13.7346 -36.265 -4.59765 2.2979 -0.4685 1.8313 58.3139 65.0614 -81.2203 5.2953 0 1.77636e-15 -31.464 7.7219 23.7929 3.0181 0 0 12.8725 -4.12482 15.9785 9.3793 0.2991 2.5924 -6.58946 -1.22882 -1.41202 4.3461 0 1.77636e-15 -21.0414 -0.51881 4.28075 2.1666 -3.55271e-15 0 -14.0302 -0.338968 2.38159 9.4769 0.8376 0.2947 -14.1409 -4.92932 2.73902 4.772 1.77636e-15 0 -20.8093 -0.881711 5.28925 2.8722 7.10543e-15 -8.88178e-16 -17.8531 -0.606038 5.95172 8.6586 1.0176 -1.7016 -19.8332 1.33949 4.06081 4.5461 4.44089e-15 0 -24.7934 -0.728611 3.3135 2.506 7.10543e-15 1.77636e-15 -15.0154 -0.214784 2.97565 7.6901 0.6618 -3.9096 -24.3727 -10.4988 6.56081 3.2119 -5.32907e-15 0 -20.2784 -1.23917 6.92103 1.924 -7.10543e-15 0 -15.0468 -0.625096 6.70926 -4.0677 26.6109 -1.1234 4.85522 -1.80421 9.97594 -14.1772 2.84217e-14 3.55271e-15 75.9387 37.2722 -9.58278 -26.1234 0 0 0.185371 -0.547464 10.1595 -27.7188 7.10543e-15 -1.77636e-15 12.1793 -24.1549 -1.87363 -2.2979 -0.4684 1.8313 -58.2888 62.9234 82.0554 -5.2953 0 -5.32907e-15 35.5236 5.66604 -24.1735 -3.0181 -1.77636e-15 3.55271e-15 -13.436 -3.58897 -20.1821 -9.3793 0.2991 2.5924 5.86859 -1.17541 1.84432 -4.3461 0 8.88178e-16 21.1296 -0.441874 -3.85049 -2.1666 -5.32907e-15 0 14.0787 -0.305003 -2.13656 -9.4769 0.8376 0.2947 13.5454 -4.80909 -2.15242 -4.772 -1.77636e-15 -2.66454e-15 20.9213 -0.807991 -4.86239 -2.8722 0 0 17.9672 -0.556249 -5.50099 -8.6586 1.0176 -1.7016 19.1976 1.52087 -3.37919 -4.5461 0 0 24.8631 -0.61996 -2.81138 -2.506 7.10543e-15 0 15.0733 -0.183526 -2.5251 -7.6901 0.6618 -3.9096 23.9467 -10.263 -5.76176 -3.2119 0 3.55271e-15 20.4267 -1.17281 -6.50272 -1.924 7.10543e-15 3.55271e-15 15.1851 -0.594997 -6.30455 8.7379 -0.0029 0.0005 11.3755 -8.2922 24.4644 0 -46.6676 0 4.89749 18.4683 1.28637 0 -40.1476 0 -6.4101 -3.66042 8.0028 1.77636e-15 -8.8846 14.2294 0.0001 -4.96962e-17 -9.54166e-15 -8.7379 0.0029 -0.0005 2.38875 -0.013534 -18.3068 0 -46.6676 0 -2.70361 13.0666 -9.48968 0 -40.1476 4.44089e-16 3.2179 -8.42071 -8.99873 1.77636e-15 -8.8846 14.2294 -1.49089e-16 9.93923e-17 -6.36111e-15 
-0.109381 96.2472 0.233317 -3.70677 -3.54471 -5.56844 -8.88178e-16 7.2397 0 2.33221 -1.85527 0.772148 2.22045e-16 16.546 0 3.99952 -1.82936 1.37809 1.77636e-15 34.2149 1.77636e-15 0.533376 38.097 -0.338152 0 6.2923 1.42109e-14 -0.382025 -26.9506 0.960849 4.0639 26.6115 -1.1234 -2.7551 -2.48499 -12.3144 14.1772 0 0 -82.9419 25.7025 6.45803 26.1234 7.10543e-15 -3.55271e-15 -0.000258032 0.463462 -0.0188492 27.7188 0 0 -13.7625 -36.2652 -4.62644 2.2979 -0.4685 1.8313 58.3139 65.0614 -81.2203 5.2953 -7.10543e-15 -1.77636e-15 -31.4531 7.72797 23.788 3.0181 0 0 12.8853 -4.12565 15.9756 9.3793 0.2991 2.5924 -6.57584 -1.22848 -1.41431 4.3461 0 -1.77636e-15 -21.0278 -0.517791 4.27811 2.1666 -5.32907e-15 0 -14.0167 -0.338302 2.37891 9.4769 0.8376 0.2947 -14.1274 -4.92825 2.73668 4.772 3.55271e-15 0 -20.796 -0.880473 5.28599 2.8722 -3.55271e-15 1.77636e-15 -17.8397 -0.604974 5.94842 8.6586 1.0176 -1.7016 -19.8195 1.34075 4.05858 4.5461 3.10862e-15 4.44089e-16 -24.7796 -0.727818 3.31178 2.506 7.10543e-15 8.88178e-16 -15.0016 -0.214292 2.97382 7.6901 0.6618 -3.9096 -24.3594 -10.4975 6.55868 3.2119 7.10543e-15 -1.77636e-15 -20.2654 -1.23759 6.91676 1.924 1.42109e-14 -3.55271e-15 -15.0337 -0.623912 6.70486 -4.0677 26.6109 -1.1234 4.91628 -1.80317 10.0276 -14.1772 -2.84217e-14 -3.55271e-15 75.8829 37.3251 -9.58469 -26.1234 0 0 0.185629 -0.548158 10.1714 -27.7188 0 0 12.1521 -24.1408 -1.90067 -2.2979 -0.4684 1.8313 -58.2888 62.9234 82.0554 -5.2953 0 0 35.5125 5.67193 -24.1692 -3.0181 -1.77636e-15 -3.55271e-15 -13.4486 -3.5891 -20.1785 -9.3793 0.2991 2.5924 5.85485 -1.17517 1.84632 -4.3461 3.55271e-15 -8.88178e-16 21.116 -0.440954 -3.84811 -2.1666 1.77636e-15 0 14.0651 -0.304403 -2.13415 -9.4769 0.8376 0.2947 13.5318 -4.80816 -2.15035 -4.772 -1.77636e-15 0 20.9078 -0.806846 -4.8594 -2.8722 -3.55271e-15 0 17.9538 -0.555262 -5.49795 -8.6586 1.0176 -1.7016 19.1838 1.52196 -3.37722 -4.5461 -4.44089e-15 -1.77636e-15 24.8493 -0.619287 -2.80992 -2.506 -7.10543e-15 0 15.0596 -0.183107 -2.52355 -7.6901 0.6618 -3.9096 23.9333 -10.262 -5.75988 -3.2119 -1.77636e-15 -3.55271e-15 20.4137 -1.17131 -6.4987 -1.924 0 0 15.1719 -0.593881 -6.30041 8.7379 -0.0029 0.0005 11.3602 -8.293 24.4588 1.77636e-15 -46.6676 -3.55271e-15 4.90748 18.4594 1.25283 1.77636e-15 -40.1476 1.77636e-15 -6.41684 -3.64348 8.00292 1.77636e-15 -8.8846 14.2294 0.0001 9.93923e-17 -0 -8.7379 0.0029 -0.0005 2.38192 -0.0406088 -18.308 8.88178e-16 -46.6676 -1.77636e-15 -2.72453 13.1508 -9.48639 -1.77636e-15 -40.1476 8.88178e-16 3.22739 -8.47748 -9.03659 -1.77636e-15 -8.8846 14.2294 9.93923e-17 -9.93923e-17 -0 
-0.126149 96.2459 0.231232 -3.69219 -3.5549 -5.53777 -8.88178e-16 7.2397 8.88178e-16 2.33282 -1.83845 0.778859 2.22045e-16 16.546 0 4.00734 -1.79547 1.39025 0 34.2149 0 0.509885 38.0967 -0.335265 -8.88178e-16 6.2923 0 -0.383914 -26.9723 0.92313 4.0639 26.6115 -1.1234 -2.82125 -2.47744 -12.331 14.1772 0 -3.55271e-15 -82.8624 25.7381 6.51355 26.1234 0 0 -0.00134504 0.441802 -0.170622 27.7188 0 3.55271e-15 -13.7356 -36.2827 -4.56207 2.2979 -0.4685 1.8313 58.3139 65.0614 -81.2203 5.2953 0 3.55271e-15 -31.4314 7.73739 23.7773 3.0181 0 -3.55271e-15 12.9093 -4.12908 15.9717 9.3793 0.2991 2.5924 -6.55099 -1.22804 -1.41863 4.3461 -3.55271e-15 0 -21.0032 -0.515945 4.27331 2.1666 -1.77636e-15 0 -13.9919 -0.337082 2.37403 9.4769 0.8376 0.2947 -14.1029 -4.92648 2.73243 4.772 1.77636e-15 -8.88178e-16 -20.7716 -0.878219 5.28005 2.8722 0 8.88178e-16 -17.8154 -0.603045 5.94241 8.6586 1.0176 -1.7016 -19.7946 1.3429 4.05455 4.5461 4.44089e-15 0 -24.7547 -0.726371 3.30865 2.506 -7.10543e-15 0 -14.9766 -0.213399 2.97049 7.6901 0.6618 -3.9096 -24.3353 -10.4951 6.55476 3.2119 -1.77636e-15 0 -20.2417 -1.23472 6.90897 1.924 -7.10543e-15 0 -15.0099 -0.621761 6.69685 -4.0677 26.6109 -1.1234 4.98529 -1.80085 10.0767 -14.1772 2.84217e-14 0 75.8068 37.3776 -9.55971 -26.1234 0 -7.10543e-15 0.185626 -0.548073 10.1723 -27.7188 0 -1.77636e-15 12.1331 -24.1188 -1.91758 -2.2979 -0.4684 1.8313 -58.2888 62.9234 82.0554 -5.2953 7.10543e-15 -1.77636e-15 35.4908 5.68137 -24.1597 -3.0181 0 -3.55271e-15 -13.4724 -3.59115 -20.1733 -9.3793 0.2991 2.5924 5.83 -1.17493 1.85016 -4.3461 0 -8.88178e-16 21.0912 -0.439279 -3.8438 -2.1666 0 -1.77636e-15 14.0402 -0.303313 -2.12979 -9.4769 0.8376 0.2947 13.5072 -4.80663 -2.14656 -4.772 -5.32907e-15 1.77636e-15 20.8833 -0.804769 -4.85394 -2.8722 3.55271e-15 1.77636e-15 17.9292 -0.553471 -5.49244 -8.6586 1.0176 -1.7016 19.1589 1.52383 -3.37362 -4.5461 3.55271e-15 0 24.8243 -0.618054 -2.80726 -2.506 7.10543e-15 0 15.0345 -0.182351 -2.52072 -7.6901 0.6618 -3.9096 23.9091 -10.2599 -5.75638 -3.2119 -1.77636e-15 0 20.3897 -1.16859 -6.4914 -1.924 -7.10543e-15 0 15.148 -0.59184 -6.29289 8.7379 -0.0029 0.0005 11.3476 -8.28671 24.4591 0 -46.6676 3.55271e-15 4.91624 18.4382 1.22466 -3.55271e-15 -40.1476 0 -6.41642 -3.61994 8.00398 -3.55271e-15 -8.8846 14.2294 0.0001 9.93923e-17 6.36111e-15 -8.7379 0.0029 -0.0005 2.37786 -0.054274 -18.3175 -1.77636e-15 -46.6676 0 -2.73624 13.2021 -9.48395 1.77636e-15 -40.1476 -4.44089e-16 3.23018 -8.51184 -9.05015 0 -8.8846 14.2294 -1.49089e-16 -4.96962e-17 3.18055e-15 
